<?xml version="1.0" encoding="UTF-8"?>
<svg width="27px" height="27px" viewBox="0 0 27 27" version="1.1" xmlns="http://www.w3.org/2000/svg" xmlns:xlink="http://www.w3.org/1999/xlink">
    <title>Layout - Shape</title>
    <defs>
        <circle id="path-1" cx="13.5" cy="13.5" r="11.5"></circle>
    </defs>
    <g id="Layout---Shape" stroke="none" stroke-width="1" fill="none" fill-rule="evenodd">
        <mask id="mask-2" fill="white">
            <use xlink:href="#path-1"></use>
        </mask>
        <g id="Oval"></g>
        <path d="M0.5,5.5 C2.16666667,5.5 3.5,5.5 4.5,5.5 C6,5.5 6,4 7.5,4 C9,4 9,5.5 10.5,5.5 C12,5.5 12,2.5 13.5,2.5 C15,2.5 15,5.5 16.5,5.5 C18,5.5 18,3.5 19.5,3.5 C21,3.5 21,5.5 22.5,5.5 C23.5,5.5 24.8333333,5.5 26.5,5.5" id="Line" stroke="#FFFFFF" stroke-linecap="square" mask="url(#mask-2)"></path>
        <path d="M0.5,9.5 C2.16666667,9.5 3.5,9.5 4.5,9.5 C6,9.5 6,5.5 7.5,5.5 C9,5.5 9,9.5 10.5,9.5 C12,9.5 12,8 13.5,8 C15,8 15,9.5 16.5,9.5 C18,9.5 18,5.5 19.5,5.5 C21,5.5 21,9.5 22.5,9.5 C23.5,9.5 24.8333333,9.5 26.5,9.5" id="Line" stroke="#FFFFFF" stroke-linecap="square" mask="url(#mask-2)"></path>
        <path d="M0.5,13.5 C2.16666667,13.5 3.5,13.5 4.5,13.5 C6,13.5 6,12.5 7.5,12.5 C9,12.5 9,13.5 10.5,13.5 C12,13.5 12,6 13.5,6 C15,6 15,13.5 16.5,13.5 C18,13.5 18,9 19.5,9 C21,9 21,13.5 22.5,13.5 C23.5,13.5 24.8333333,13.5 26.5,13.5" id="Line" stroke="#FFFFFF" stroke-linecap="square" mask="url(#mask-2)"></path>
        <path d="M0.5,17.5 C2.16666667,17.5 3.5,17.5 4.5,17.5 C6,17.5 6,9.5 7.5,9.5 C9,9.5 9,17.5 10.5,17.5 C12,17.5 12,16 13.5,16 C15,16 15,17.5 16.5,17.5 C18,17.5 18,15 19.5,15 C21,15 21,17.5 22.5,17.5 C23.5,17.5 24.8333333,17.5 26.5,17.5" id="Line" stroke="#FFFFFF" stroke-linecap="square" mask="url(#mask-2)"></path>
        <path d="M0.5,21.5 C2.16666667,21.5 3.5,21.5 4.5,21.5 C6,21.5 6,18.5 7.5,18.5 C9,18.5 9,21.5 10.5,21.5 C12,21.5 12,18 13.5,18 C15,18 15,21.5 16.5,21.5 C18,21.5 18,20.5 19.5,20.5 C21,20.5 21,21.5 22.5,21.5 C23.5,21.5 24.8333333,21.5 26.5,21.5" id="Line" stroke="#FFFFFF" stroke-linecap="square" mask="url(#mask-2)"></path>
    </g>
</svg>